<?xml version="1.0" standalone="no"?>
<!DOCTYPE svg PUBLIC "-//W3C//DTD SVG 20010904//EN"
 "http://www.w3.org/TR/2001/REC-SVG-20010904/DTD/svg10.dtd">
<svg version="1.0" xmlns="http://www.w3.org/2000/svg"
 width="1920.000000pt" height="1920.000000pt" viewBox="0 0 1920.000000 1920.000000"
 preserveAspectRatio="xMidYMid meet">
<metadata>
Created by potrace 1.16, written by Peter Selinger 2001-2019
</metadata>
<g transform="translate(0.000000,1920.000000) scale(0.100000,-0.100000)"
fill="#000000" stroke="none">
<path d="M7996 12991 c-5 -8 -253 -674 -1051 -2826 -51 -137 -168 -452 -260
-700 -92 -247 -196 -526 -230 -620 -68 -183 -172 -463 -624 -1680 l-290 -780
-225 -3 -226 -2 0 -90 0 -90 735 0 735 0 0 90 0 90 -360 0 c-198 0 -360 4
-360 9 0 4 45 136 101 292 371 1047 621 1747 629 1767 l10 22 953 0 954 0 151
-447 c275 -819 410 -1217 447 -1325 l37 -108 1004 0 c552 0 1004 2 1004 5 0 6
-289 794 -745 2035 -109 296 -527 1435 -635 1730 -61 168 -142 388 -180 490
-63 171 -172 468 -605 1650 -90 245 -168 457 -174 473 l-11 27 -389 0 c-214 0
-392 -4 -395 -9z m-306 -2138 c61 -186 248 -750 415 -1253 168 -504 305 -919
305 -923 0 -4 -391 -7 -870 -7 -747 0 -870 2 -870 14 0 13 49 153 225 641 134
372 596 1661 631 1758 21 59 41 107 45 107 4 0 58 -152 119 -337z"/>
<path d="M9075 12923 c4 -10 72 -196 152 -413 79 -217 193 -528 253 -690 60
-162 142 -387 183 -500 42 -113 132 -360 202 -550 70 -190 218 -595 330 -900
112 -305 242 -661 290 -790 47 -129 106 -289 130 -355 24 -66 58 -156 74 -200
l30 -80 1 584 0 583 243 -5 c168 -3 271 -10 337 -22 473 -86 709 -336 803
-850 21 -114 22 -147 22 -675 0 -578 -3 -631 -47 -860 -40 -210 -127 -429
-208 -523 -84 -96 -250 -201 -390 -246 -162 -52 -139 -51 -1606 -51 l-1364 0
0 -90 0 -91 1563 4 1562 3 250 32 c656 85 988 168 1344 338 535 256 811 661
872 1279 16 161 6 449 -20 575 -96 471 -360 804 -823 1036 -253 127 -618 232
-985 285 -51 7 -83 16 -83 23 0 7 37 19 93 30 344 65 652 181 881 333 126 83
302 257 375 368 98 150 161 305 203 499 20 89 22 131 23 356 0 276 -10 353
-72 538 -99 299 -326 552 -633 707 -229 115 -589 218 -940 269 -399 58 -629
66 -1919 66 -1075 0 -1133 -1 -1126 -17z m2250 -192 c318 -85 455 -282 521
-751 22 -161 33 -1042 14 -1240 -32 -349 -119 -590 -264 -736 -79 -78 -136
-116 -234 -151 -123 -45 -188 -54 -419 -60 l-223 -6 0 1488 0 1487 263 -4
c227 -5 273 -8 342 -27z"/>
</g>
</svg>
